[img]http://briefcase.pathfinder.gr/download/540731/numberone.gif[/img]
[img]http://briefcase.pathfinder.gr/download/538827/seed.gif[/img]

[img]http://www.33smiley.com/smiley5/work/5.gif[/img]


[img]http://www.vpuk.co.uk/Pictures/BC/BC.jpg[/img]

IMDB Link:http://www.imdb.com/title/tt0315206/

Plot:Saima is a second-generation East Indian-American, living in Austin, Texas, along with her dad, mom, and 

brother, Dev. Her dad considers her an old maid and wants her to get married to Ameet much to her displeasure as she 

dislikes him. Her dad wants their marriage to be telecast via Internet so that their extended family in India can 

e-participate in the ceremony. After her not-so-good-looking friend, Ruby, gets married, albeit dramatically to 

Bobby, Ameet's friend, Her dad pressurizes her and even manages to convince her, she appears to change her mind but 

secretly meets with Ameet and together they create a series of misunderstandings with Ameet revealing his secret 

desire of becoming a male stripper during their formal engagement. They do succeed in getting their wedding 

canceled, but then Saima is faced with another challenge when her dad wants her to get married to Ashol, a Computer 

Programmer, who she also dislikes. The question does remain will Saima be compelled to go through another charade, 

and will Ashol be ready to along with her?

[IMG]http://i981.photobucket.com/albums/ae294/fasamoo/BallChain2004DVDRipGoGo_20100517-15.jpg[/IMG]
[IMG]http://i981.photobucket.com/albums/ae294/fasamoo/BallChain2004DVDRipGoGo_20100517-16.jpg[/IMG]
[IMG]http://i981.photobucket.com/albums/ae294/fasamoo/BallChain2004DVDRipGoGo_20100517-1.jpg[/IMG]
[IMG]http://i981.photobucket.com/albums/ae294/fasamoo/BallChain2004DVDRipGoGo_20100517-2.jpg[/IMG]
[IMG]http://i981.photobucket.com/albums/ae294/fasamoo/BallChain2004DVDRipGoGo_20100517-3.jpg[/IMG]
[IMG]http://i981.photobucket.com/albums/ae294/fasamoo/BallChain2004DVDRipGoGo_20100517-4.jpg[/IMG]
[IMG]http://i981.photobucket.com/albums/ae294/fasamoo/BallChain2004DVDRipGoGo_20100517-5.jpg[/IMG]

General
Complete name                    : Ball & Chain 2004 DVDRip GoGoBall & Chain 2004 DVDRip GoGo.avi
Format                           : AVI
Format/Info                      : Audio Video Interleave
File size                        : 700 MiB
Duration                         : 1h 30mn
Overall bit rate                 : 1 077 Kbps
Writing application              : VirtualDubMod 1.5.4.1 (build 2178/release)
Writing library                  : VirtualDubMod build 2178/release

Video
ID                               : 0
Format                           : MPEG-4 Visual
Format profile                   : Advanced Simple@L5
Format settings, BVOP            : Yes
Format settings, QPel            : No
Format settings, GMC             : No warppoints
Format settings, Matrix          : Custom
Codec ID                         : XVID
Codec ID/Hint                    : XviD
Duration                         : 1h 30mn
Bit rate                         : 955 Kbps
Width                            : 608 pixels
Height                           : 320 pixels
Display aspect ratio             : 1.900
Frame rate                       : 23.976 fps
Resolution                       : 8 bits
Colorimetry                      : 4:2:0
Scan type                        : Progressive
Bits/(Pixel*Frame)               : 0.205
Stream size                      : 621 MiB (89%)
Writing library                  : XviD 1.2.1 (UTC 2008-12-04)

Audio
ID                               : 1
Format                           : MPEG Audio
Format version                   : Version 1
Format profile                   : Layer 3
Mode                             : Joint stereo
Codec ID                         : 55
Codec ID/Hint                    : MP3
Duration                         : 1h 30mn
Bit rate mode                    : Variable
Bit rate                         : 109 Kbps
Nominal bit rate                 : 128 Kbps
Channel(s)                       : 2 channels
Sampling rate                    : 48.0 KHz
Stream size                      : 70.7 MiB (10%)
Alignment                        : Aligned on interleaves
Interleave, duration             : 24 ms (0.58 video frame)
Interleave, preload duration     : 593 ms
Writing library                  : LAME3.98r
Encoding settings                : -m j -V 4 -q 2 -lowpass 17 --abr 128
Language                         : English

